<svg width="24" height="24" viewBox="0 0 24 24" fill="none" xmlns="http://www.w3.org/2000/svg">
<path d="M19.44 2.96634C20.3222 2.96634 21.0343 3.67845 21.0343 4.56061V19.4405C21.0343 20.3226 20.3222 21.0348 19.44 21.0348H4.56013C3.67796 21.0348 2.96585 20.3226 2.96585 19.4405V4.56061C2.96585 3.67845 3.67796 2.96634 4.56013 2.96634H19.44ZM19.44 1.37207H4.56013C2.7958 1.37207 1.37158 2.79629 1.37158 4.56061V19.4405C1.37158 21.2048 2.7958 22.629 4.56013 22.629H19.44C21.2043 22.629 22.6285 21.2048 22.6285 19.4405V4.56061C22.6285 2.79629 21.2043 1.37207 19.44 1.37207Z" fill="white"/>
<path d="M19.44 2.96634C20.3222 2.96634 21.0343 3.67845 21.0343 4.56061V19.4405C21.0343 20.3226 20.3222 21.0348 19.44 21.0348H4.56013C3.67796 21.0348 2.96585 20.3226 2.96585 19.4405V4.56061C2.96585 3.67845 3.67796 2.96634 4.56013 2.96634H19.44ZM19.44 1.37207H4.56013C2.7958 1.37207 1.37158 2.79629 1.37158 4.56061V19.4405C1.37158 21.2048 2.7958 22.629 4.56013 22.629H19.44C21.2043 22.629 22.6285 21.2048 22.6285 19.4405V4.56061C22.6285 2.79629 21.2043 1.37207 19.44 1.37207Z" fill="white"/>
<path d="M12.0001 18.1121C11.5643 18.1121 11.2029 17.7507 11.2029 17.3149V7.74928C11.2029 7.31352 11.5643 6.95215 12.0001 6.95215C12.4358 6.95215 12.7972 7.31352 12.7972 7.74928V17.3149C12.7972 17.7507 12.4358 18.1121 12.0001 18.1121ZM7.74867 18.1121C7.31291 18.1121 6.95154 17.7507 6.95154 17.3149V13.0635C6.95154 12.6278 7.31291 12.2664 7.74867 12.2664C8.18444 12.2664 8.54581 12.6278 8.54581 13.0635V17.3149C8.54581 17.7507 8.18444 18.1121 7.74867 18.1121ZM16.2515 18.1121C15.8157 18.1121 15.4543 17.7507 15.4543 17.3149V10.9378C15.4543 10.5021 15.8157 10.1407 16.2515 10.1407C16.6872 10.1407 17.0486 10.5021 17.0486 10.9378V17.3149C17.0486 17.7507 16.6872 18.1121 16.2515 18.1121Z" fill="white"/>
</svg>
