<svg width="25" height="25" viewBox="0 0 25 25" fill="none" xmlns="http://www.w3.org/2000/svg">
<circle cx="12.5" cy="12.5" r="12.5" fill="url(#paint0_linear_75_846)"/>
<path d="M12.8412 8.99514L7.34709 14.4892C7.14464 14.6921 7.01669 14.9574 6.98402 15.2421L6.76511 17.1642C6.73625 17.4376 6.82518 17.7103 7.00964 17.9141C7.19409 18.1179 7.45662 18.2336 7.73151 18.232L7.84364 18.232L9.76576 18.0131C10.0493 17.9803 10.3141 17.8545 10.5186 17.6554L16.0127 12.156L12.8412 8.99514ZM17.8707 8.53063L16.4772 7.13709C16.2417 6.9007 15.9218 6.76782 15.5882 6.76782C15.2546 6.76782 14.9347 6.9007 14.6992 7.13709L13.4071 8.42918L16.5786 11.6007L17.8707 10.3086C18.1071 10.0731 18.24 9.75325 18.24 9.41961C18.24 9.08598 18.1071 8.76608 17.8707 8.53063Z" fill="white"/>
<defs>
<linearGradient id="paint0_linear_75_846" x1="6.25" y1="6.25" x2="6.25" y2="6.25" gradientUnits="userSpaceOnUse">
<stop offset="1" stop-color="#6153C3"/>
<stop stop-color="#7A00AA"/>
</linearGradient>
</defs>
</svg>
