<svg width="13" height="12" viewBox="0 0 13 12" fill="none" xmlns="http://www.w3.org/2000/svg">
<path d="M6.84117 2.49539L1.34709 7.98947C1.14464 8.1923 1.01669 8.4576 0.98402 8.7423L0.765111 10.6644C0.73625 10.9378 0.825178 11.2105 1.00964 11.4144C1.19409 11.6182 1.45662 11.7338 1.73151 11.7323L1.84364 11.7323L3.76576 11.5134C4.04934 11.4806 4.31406 11.3548 4.5186 11.1556L10.0127 5.65622L6.84117 2.49539ZM11.8707 2.03087L10.4772 0.637331C10.2417 0.400945 9.92185 0.268066 9.58821 0.268066C9.25457 0.268066 8.93467 0.400945 8.69923 0.63733L7.40713 1.92943L10.5786 5.10094L11.8707 3.80884C12.1071 3.57339 12.24 3.25349 12.24 2.91986C12.24 2.58622 12.1071 2.26632 11.8707 2.03087Z" fill="#555555"/>
</svg>
