<svg width="18" height="13" viewBox="0 0 18 13" fill="none" xmlns="http://www.w3.org/2000/svg">
<path d="M15.8407 12.9678H2.15934C1.06682 12.9666 0.181472 12.0812 0.180176 10.9887L0.180176 2.01127C0.181472 0.918745 1.06682 0.0333996 2.15935 0.0321045H15.8407C16.9332 0.0333991 17.8185 0.918745 17.8198 2.01127V10.9887C17.8185 12.0812 16.9332 12.9666 15.8407 12.9678ZM2.15934 1.20808C1.71659 1.20808 1.35615 1.56852 1.35615 2.01127V10.9887C1.35615 11.4314 1.71659 11.7919 2.15934 11.7919H15.8407C16.2834 11.7919 16.6438 11.4314 16.6438 10.9887V2.01127C16.6438 1.56852 16.2834 1.20808 15.8407 1.20808H2.15934Z" fill="black"/>
<path d="M9.00001 7.27923C8.45969 7.27909 7.9296 7.13193 7.46653 6.85353L2.81731 4.06411C2.54095 3.8983 2.44982 3.53434 2.61622 3.25739C2.78262 2.98045 3.14599 2.8899 3.42294 3.05571L8.07157 5.84513C8.64275 6.18906 9.35726 6.18906 9.92844 5.84513L14.5771 3.05571C14.8555 2.88847 15.2169 2.97864 15.3841 3.2571C15.5513 3.53556 15.4612 3.89687 15.1827 4.06411L10.5335 6.85353C10.0704 7.13199 9.54033 7.27915 9.00001 7.27923Z" fill="black"/>
</svg>
