<svg width="16" height="16" viewBox="0 0 16 16" fill="none" xmlns="http://www.w3.org/2000/svg">
<path d="M8.32935 3.38916H5.69458C4.78557 3.39025 4.04894 4.12688 4.04785 5.03589L4.04917 9.1257C4.04968 9.31566 4.15353 9.49029 4.3202 9.58144C4.48686 9.67258 4.68993 9.6658 4.85014 9.56373L5.96794 8.65869H6.02458V9.64673C6.02458 10.5551 6.76364 11.2935 7.67131 11.2935H9.62697L11.1512 12.5278C11.3114 12.6299 11.5145 12.6367 11.6811 12.5455C11.8478 12.4544 11.9516 12.2798 11.9521 12.0898L11.9535 7.67065C11.9535 6.76232 11.2144 6.02393 10.3067 6.02393H9.97739V5.03589C9.97739 4.12755 9.23834 3.38916 8.33066 3.38916H8.32935ZM5.36523 5.03589C5.36523 4.854 5.51269 4.70654 5.69458 4.70654H8.32935C8.51124 4.70654 8.65869 4.854 8.65869 5.03589V6.02393H7.67065C6.87561 6.02393 6.21034 6.5904 6.05752 7.34131H5.36523V5.03589ZM10.6348 7.67065V9.97607H7.67065C7.48876 9.97607 7.34131 9.82862 7.34131 9.64673V7.67065C7.34131 7.48876 7.48876 7.34131 7.67065 7.34131H10.3054C10.4873 7.34131 10.6348 7.48876 10.6348 7.67065ZM15.9043 8C15.9043 12.3586 12.3586 15.9043 8 15.9043C5.3519 15.9002 2.88106 14.5729 1.41572 12.3671L1.41309 13.2695C1.41309 13.6333 1.11818 13.9282 0.754394 13.9282C0.390609 13.9282 0.0957031 13.6333 0.0957031 13.2695V11.2994C0.0957031 10.5702 0.689184 9.97607 1.41836 9.97607H3.38916C3.75295 9.97607 4.04785 10.271 4.04785 10.6348C4.04785 10.9986 3.75295 11.2935 3.38916 11.2935H2.31088C3.48072 13.3091 5.63859 14.5869 8 14.5869C11.632 14.5869 14.5869 11.632 14.5869 8C14.5869 7.63621 14.8818 7.34131 15.2456 7.34131C15.6094 7.34131 15.9043 7.63622 15.9043 8ZM15.9043 2.73047V4.70061C15.9036 5.4309 15.3119 6.02284 14.5816 6.02393H12.6108C12.2471 6.02393 11.9521 5.72902 11.9521 5.36523C11.9521 5.00145 12.2471 4.70654 12.6108 4.70654H13.7076C12.545 2.67843 10.3976 1.41309 8 1.41309C4.36798 1.41309 1.41309 4.36798 1.41309 8C1.41309 8.36379 1.11818 8.65869 0.754394 8.65869C0.390609 8.65869 0.0957031 8.36378 0.0957031 8C0.0957031 3.64144 3.64144 0.0957031 8 0.0957031C10.7052 0.0957031 13.1424 1.44009 14.5843 3.62365L14.5869 2.73047C14.5869 2.36668 14.8818 2.07178 15.2456 2.07178C15.6094 2.07178 15.9043 2.36668 15.9043 2.73047Z" fill="white"/>
</svg>
