<svg width="18" height="24" viewBox="0 0 18 24" fill="none" xmlns="http://www.w3.org/2000/svg">
<path d="M13.25 24H2.75C1.23167 23.9989 0.0011034 22.7683 0 21.25V4.75C0.00330448 2.12802 2.12802 0.00330544 4.75 0H15.25C16.7683 0.00110412 17.9989 1.23167 18 2.75L18 19.25C17.9967 21.872 15.872 23.9967 13.25 24ZM4.75 1.5C2.95599 1.5022 1.5022 2.95599 1.5 4.75L1.5 21.25C1.5 21.939 2.061 22.5 2.75 22.5H13.25C15.044 22.4978 16.4978 21.044 16.5 19.25V2.75C16.5 2.061 15.939 1.5 15.25 1.5H4.75Z" fill="white"/>
<path d="M13.25 12H4.75C3.785 12 3 11.215 3 10.25V4.75C3 3.785 3.785 3 4.75 3H13.25C14.215 3 15 3.785 15 4.75V10.25C15 11.215 14.215 12 13.25 12ZM4.75 4.5C4.61193 4.5 4.5 4.61193 4.5 4.75V10.25C4.5 10.388 4.612 10.5 4.75 10.5H13.25C13.3881 10.5 13.5 10.3881 13.5 10.25V4.75C13.5 4.61193 13.3881 4.5 13.25 4.5H4.75ZM5.25 20C4.83579 20 4.5 19.6642 4.5 19.25V15.75C4.5 15.3358 4.83579 15 5.25 15C5.66421 15 6 15.3358 6 15.75V19.25C6 19.6642 5.66421 20 5.25 20Z" fill="white"/>
<path d="M7 18.25H3.5C3.08579 18.25 2.75 17.9142 2.75 17.5C2.75 17.0858 3.08579 16.75 3.5 16.75H7C7.41421 16.75 7.75 17.0858 7.75 17.5C7.75 17.9142 7.41421 18.25 7 18.25Z" fill="white"/>
<circle cx="12.5" cy="15.75" r="0.75" fill="white"/>
<circle cx="14.25" cy="17.5" r="0.75" fill="white"/>
<circle cx="10.75" cy="17.5" r="0.75" fill="white"/>
<circle cx="12.5" cy="19.25" r="0.75" fill="white"/>
</svg>
