<svg width="24" height="18" viewBox="0 0 24 18" fill="none" xmlns="http://www.w3.org/2000/svg">
<path d="M20.5154 0.0168601C20.7439 0.122952 20.8771 0.256158 20.9832 0.484664C21.0303 0.834493 21.0061 1.0394 20.7961 1.32671C20.7064 1.42852 20.6112 1.52411 20.5149 1.61961C20.4868 1.64787 20.4587 1.67613 20.4297 1.70524C20.3354 1.79989 20.2408 1.89421 20.1461 1.98853C20.0778 2.05699 20.0094 2.12547 19.9411 2.19398C19.7533 2.38219 19.5652 2.5701 19.377 2.75797C19.1742 2.96061 18.9716 3.16352 18.769 3.3664C18.395 3.7408 18.0207 4.115 17.6464 4.48908C17.3006 4.8346 16.955 5.1802 16.6094 5.5259C16.5865 5.54882 16.5636 5.57175 16.5399 5.59537C16.4469 5.68843 16.3539 5.78149 16.2609 5.87455C15.3882 6.74752 14.5152 7.62021 13.6421 8.49279C12.8662 9.26831 12.0905 10.0441 11.3149 10.82C10.4438 11.6916 9.57256 12.5631 8.70105 13.4343C8.60819 13.5272 8.51533 13.62 8.42247 13.7128C8.3996 13.7357 8.37674 13.7585 8.35318 13.7821C8.00761 14.1276 7.66216 14.4731 7.31676 14.8188C6.92417 15.2116 6.53142 15.6043 6.13845 15.9968C5.93783 16.1971 5.73729 16.3976 5.53695 16.5982C5.35374 16.7817 5.17033 16.965 4.98674 17.1481C4.92018 17.2145 4.85369 17.2811 4.78729 17.3477C4.69738 17.4379 4.6072 17.5278 4.51693 17.6176C4.49091 17.6439 4.46489 17.6701 4.43807 17.6971C4.2188 17.9143 4.08204 17.9942 3.77385 17.9981C3.53023 17.9933 3.38881 17.9665 3.20663 17.7934C3.00014 17.576 2.99764 17.3776 2.99466 17.0917C3.06071 16.7187 3.4061 16.4599 3.66329 16.2065C3.70803 16.1621 3.75276 16.1176 3.79745 16.0731C3.91452 15.9567 4.03184 15.8405 4.14924 15.7244C4.33767 15.538 4.52579 15.3512 4.71376 15.1643C4.77939 15.0992 4.8452 15.0342 4.911 14.9692C4.9705 14.9102 4.97049 14.9102 5.03119 14.8499C5.06626 14.8153 5.10133 14.7806 5.13746 14.7449C5.22137 14.664 5.22137 14.664 5.26497 14.5656C5.21721 14.5489 5.21721 14.5489 5.16849 14.5319C5.00113 14.4589 4.85425 14.3634 4.70361 14.2615C4.6728 14.2407 4.64198 14.22 4.61024 14.1986C3.31215 13.3153 2.10402 12.2013 1.15986 10.9467C1.10231 10.871 1.04353 10.7964 0.9842 10.7221C-0.010973 9.4683 -0.010973 9.4683 0.00272586 8.8706C0.0445365 8.5913 0.194298 8.3839 0.353031 8.15665C0.373594 8.12641 0.394157 8.09618 0.415343 8.06503C0.835802 7.44694 1.28267 6.85349 1.79171 6.30553C1.87913 6.21097 1.96291 6.11485 2.0459 6.01645C2.42727 5.57786 2.85127 5.15761 3.30019 4.78846C3.32454 4.7679 3.34889 4.74733 3.37397 4.72615C5.58617 2.85791 8.43294 1.52723 11.3678 1.50269C11.4133 1.50223 11.4588 1.50177 11.5057 1.5013C13.4181 1.48602 15.1675 1.73725 16.9519 2.45501C16.9843 2.468 17.0167 2.48098 17.05 2.49436C17.1292 2.52614 17.2084 2.55795 17.2875 2.58978C17.3182 2.55893 17.3488 2.52807 17.3804 2.49629C17.6692 2.20556 17.9583 1.91507 18.2476 1.62482C18.3964 1.4756 18.545 1.32629 18.6935 1.17678C18.8367 1.03249 18.9802 0.888443 19.1239 0.744548C19.1787 0.689608 19.2333 0.634586 19.2879 0.579481C19.3644 0.502314 19.4412 0.425446 19.518 0.34864C19.5406 0.325792 19.5631 0.302945 19.5863 0.279405C19.8726 -0.00521284 20.121 -0.0254313 20.5154 0.0168601ZM5.26497 5.25626C5.23841 5.27573 5.21186 5.29519 5.1845 5.31524C5.00539 5.44759 4.83036 5.58452 4.65683 5.72407C4.60937 5.76188 4.56191 5.79969 4.51301 5.83864C4.12891 6.15258 3.77728 6.5002 3.42592 6.84972C3.40197 6.87343 3.37802 6.89713 3.35334 6.92155C3.03302 7.23932 2.73671 7.56697 2.45815 7.92275C2.42932 7.9594 2.40049 7.99605 2.37079 8.03382C2.29207 8.13472 2.21416 8.23618 2.13653 8.33792C2.09764 8.3884 2.09764 8.3884 2.05796 8.43989C1.98761 8.53188 1.91856 8.62468 1.85 8.71801C1.81901 8.75962 1.78801 8.80123 1.75608 8.8441C1.69726 8.95122 1.69726 8.95122 1.73725 9.0685C1.97099 9.48417 2.29313 9.85079 2.59849 10.215C2.61848 10.2393 2.63847 10.2635 2.65907 10.2886C3.16659 10.9049 3.71829 11.4979 4.34818 11.991C4.48359 12.0971 4.61373 12.2084 4.74454 12.3201C5.00393 12.5361 5.2722 12.7328 5.55394 12.9187C5.61484 12.9589 5.67549 12.9995 5.736 13.0403C5.83672 13.1081 5.93813 13.1747 6.03977 13.2411C6.07154 13.2626 6.1033 13.284 6.13603 13.3061C6.23597 13.3726 6.23597 13.3726 6.3877 13.4428C6.54259 13.3904 6.64114 13.2944 6.75495 13.1798C6.78959 13.1451 6.82423 13.1105 6.85992 13.0748C6.89682 13.0374 6.93371 13 6.97172 12.9615C7.00988 12.9232 7.04803 12.8849 7.08734 12.8455C7.2091 12.7232 7.33053 12.6006 7.45195 12.478C7.53447 12.395 7.617 12.312 7.69956 12.2291C7.90185 12.0258 8.10388 11.8222 8.3057 11.6184C8.28639 11.5832 8.26708 11.5479 8.24719 11.5117C8.22188 11.4654 8.19657 11.4191 8.17049 11.3715C8.1454 11.3256 8.1203 11.2798 8.09444 11.2325C7.53793 10.2007 7.35028 8.96348 7.65511 7.81782C8.01784 6.61041 8.78663 5.62943 9.89623 5.02236C10.9164 4.50574 12.1648 4.34848 13.2725 4.67918C13.7489 4.83875 14.1816 5.05892 14.621 5.30304C15.0996 4.82448 15.5782 4.34592 16.0712 3.85285C15.5804 3.36198 14.3949 3.26737 13.7322 3.15115C13.6993 3.14525 13.6664 3.13936 13.6324 3.13328C10.7245 2.62919 7.61787 3.52873 5.26497 5.25626ZM9.98979 6.80002C9.42025 7.3511 9.05701 8.02061 9.04052 8.82078C9.03609 9.41371 9.09026 9.94165 9.42843 10.4489C9.67537 10.2426 9.90541 10.0251 10.1323 9.79709C10.1684 9.761 10.2045 9.72492 10.2417 9.68774C10.36 9.56939 10.4781 9.45088 10.5963 9.33237C10.6787 9.2499 10.7611 9.16745 10.8435 9.085C11.0596 8.86869 11.2756 8.65225 11.4915 8.43577C11.7122 8.21459 11.933 7.99358 12.1538 7.77254C12.5865 7.33934 13.0191 6.906 13.4515 6.47255C13.1114 6.11242 12.5253 6.03337 12.0484 6.00697C11.2651 5.98847 10.5682 6.28558 9.98979 6.80002Z" fill="black"/>
<path d="M19.9613 4.23264C20.0859 4.29221 20.1816 4.37227 20.2873 4.461C20.3552 4.51799 20.3552 4.51799 20.4246 4.57613C20.5923 4.72097 20.7577 4.86823 20.9214 5.01762C21.0156 5.10296 21.1114 5.18568 21.2083 5.26797C21.6145 5.62213 21.9931 6.01365 22.3398 6.42578C22.3955 6.48928 22.3955 6.48928 22.4524 6.55406C24.0095 8.33896 24.0095 8.33896 23.9983 9.12351C23.96 9.40527 23.8093 9.61218 23.6497 9.84075C23.6291 9.87098 23.6085 9.90122 23.5873 9.93237C23.1669 10.5505 22.72 11.1439 22.211 11.6919C22.1236 11.7864 22.0398 11.8826 21.9568 11.981C21.5754 12.4195 21.1514 12.8398 20.7025 13.2089C20.666 13.2398 20.666 13.2398 20.6287 13.2713C18.9215 14.713 16.9291 15.7429 14.7468 16.235C14.7081 16.244 14.6694 16.2529 14.6295 16.262C13.8145 16.437 12.9949 16.5072 12.1626 16.5019C12.0247 16.5011 11.8869 16.5019 11.749 16.5028C10.9143 16.5037 10.09 16.4165 9.27638 16.2263C9.23423 16.2169 9.19208 16.2076 9.14865 16.1979C8.84957 16.1306 8.55409 16.0517 8.25891 15.969C8.29221 15.6874 8.56702 15.4777 8.7555 15.2829C8.80626 15.2298 8.85625 15.176 8.90543 15.1215C9.31213 14.6707 9.31213 14.6707 9.58504 14.6435C9.7417 14.6675 9.88536 14.7057 10.0366 14.7527C10.1157 14.767 10.1951 14.7798 10.2747 14.7909C10.3117 14.7967 10.3488 14.8025 10.387 14.8085C13.3302 15.2536 16.3446 14.4514 18.7377 12.6944C18.7643 12.6749 18.7908 12.6554 18.8182 12.6354C18.9973 12.503 19.1724 12.3662 19.3459 12.2265C19.3939 12.1882 19.4419 12.1498 19.4913 12.1103C19.866 11.8034 20.2103 11.4655 20.5534 11.1243C20.5762 11.1017 20.599 11.0791 20.6226 11.0558C20.9359 10.7452 21.2253 10.422 21.4978 10.0747C21.541 10.0196 21.541 10.0196 21.5852 9.96349C21.6639 9.86261 21.7418 9.76118 21.8194 9.65948C21.8453 9.62583 21.8712 9.59218 21.898 9.55751C21.9683 9.46551 22.0374 9.37272 22.1059 9.27938C22.1369 9.23778 22.1679 9.19617 22.1998 9.1533C22.2575 9.04754 22.2575 9.04754 22.2241 8.93584C22.1274 8.76758 22.0161 8.61478 21.8983 8.46073C21.8734 8.42786 21.8485 8.39498 21.8228 8.36111C21.5847 8.04969 21.3346 7.7501 21.0767 7.45495C21.0434 7.41636 21.01 7.37776 20.9757 7.338C20.5061 6.80437 20.0034 6.29791 19.4394 5.86442C19.3838 5.8213 19.3282 5.77817 19.2726 5.73504C19.126 5.6216 18.9788 5.50893 18.8313 5.39661C18.866 5.12519 19.1068 4.95649 19.291 4.77308C19.3604 4.70374 19.4288 4.63346 19.4971 4.56306C19.5623 4.49762 19.5623 4.49762 19.6289 4.43085C19.6688 4.39064 19.7087 4.35043 19.7498 4.309C19.8604 4.2271 19.8604 4.2271 19.9613 4.23264Z" fill="black"/>
<path d="M16.2584 7.82919C16.3047 7.84463 16.351 7.86007 16.3987 7.87597C16.6935 9.06434 16.4947 10.3016 15.8881 11.3525C15.2173 12.3988 14.2122 13.1445 12.9986 13.4368C12.324 13.5721 11.5461 13.5616 10.8786 13.3961C10.8786 13.1601 10.971 13.082 11.1253 12.9209C11.1513 12.8936 11.1774 12.8663 11.2042 12.8381C11.2599 12.7803 11.3158 12.7228 11.372 12.6655C11.4559 12.5791 11.5372 12.4908 11.6187 12.4022C11.9776 12.027 12.274 11.8643 12.7893 11.7923C13.4032 11.7048 13.9529 11.2647 14.3287 10.7939C14.5627 10.4644 14.7823 10.0965 14.8236 9.68799C14.8931 9.10507 15.1926 8.8273 15.6122 8.44026C15.6748 8.38049 15.7373 8.32058 15.7996 8.26054C15.9511 8.11517 16.1042 7.97172 16.2584 7.82919Z" fill="black"/>
</svg>
