<svg width="24" height="25" viewBox="0 0 24 25" fill="none" xmlns="http://www.w3.org/2000/svg">
<path d="M9.72512 18.8203C9.47384 18.8203 9.27014 19.024 9.27014 19.2753C9.27014 19.5266 9.47384 19.7303 9.72512 19.7303H14.2749C14.5262 19.7303 14.7299 19.5266 14.7299 19.2753C14.7299 19.024 14.5262 18.8203 14.2749 18.8203H9.72512Z" fill="white"/>
<path fill-rule="evenodd" clip-rule="evenodd" d="M14.3684 2.52603C12.9798 1.43924 11.0202 1.43924 9.63157 2.52603L2.53394 8.08042C1.61603 8.79882 1.08053 9.89426 1.08057 11.0535V19.7617C1.08057 21.8538 2.79165 23.5498 4.90237 23.5498H19.0976C21.2084 23.5498 22.9194 21.8538 22.9194 19.7617L22.9194 11.0535C22.9194 9.89415 22.3839 8.79872 21.466 8.08035L14.3684 2.52603ZM10.3086 3.37564C11.3003 2.59969 12.6997 2.59969 13.6914 3.37564L20.789 8.93003C21.4448 9.44307 21.8274 10.2255 21.8275 11.0535L21.8275 19.7617C21.8275 21.2561 20.6053 22.4675 19.0976 22.4675H4.90237C3.39471 22.4675 2.17251 21.2561 2.17251 19.7617V11.0535C2.17251 10.2251 2.55486 9.44283 3.21028 8.92969L10.3086 3.37564Z" fill="white"/>
</svg>
