<svg width="16" height="18" viewBox="0 0 16 18" fill="none" xmlns="http://www.w3.org/2000/svg">
<path d="M10.1517 3.14658C10.1563 3.43822 10.3336 3.69929 10.603 3.81107C13.0138 4.87181 14.5389 7.29022 14.4572 9.92276C14.3993 13.4896 11.461 16.3341 7.89414 16.2763C4.32733 16.2184 1.48276 13.28 1.54063 9.71322C1.54401 7.15661 3.05523 4.84266 5.39479 3.81178C5.66431 3.69935 5.84155 3.43785 5.84615 3.14586C5.84653 2.90719 5.72821 2.68396 5.5305 2.55027C5.33278 2.41659 5.08154 2.38996 4.86019 2.47922C1.42745 3.96747 -0.488891 7.6612 0.271078 11.3247C1.03105 14.9881 4.25852 17.6148 7.99999 17.6148C11.7415 17.6148 14.9689 14.9881 15.7289 11.3247C16.4889 7.66121 14.5725 3.96748 11.1398 2.47922C10.9181 2.38898 10.666 2.41522 10.4676 2.54919C10.2693 2.68316 10.1508 2.90722 10.1517 3.14658Z" fill="white"/>
<path d="M7.28134 1.10235C7.28134 0.706041 7.60262 0.384766 7.99893 0.384766C8.39524 0.384766 8.71652 0.70604 8.71652 1.10235V5.40788C8.71652 5.80419 8.39524 6.12546 7.99893 6.12546C7.60262 6.12546 7.28134 5.80419 7.28134 5.40788V1.10235Z" fill="white"/>
</svg>
