<svg width="16" height="16" viewBox="0 0 16 16" fill="none" xmlns="http://www.w3.org/2000/svg">
<path d="M12.5962 0.777344H3.40383C1.59159 0.779514 0.123021 2.24808 0.12085 4.06032V11.9395C0.12302 13.7517 1.59159 15.2203 3.40383 15.2225L12.5962 15.2225C14.4084 15.2203 15.877 13.7517 15.8792 11.9395V4.06032C15.877 2.24808 14.4084 0.779515 12.5962 0.777344ZM3.40383 2.09054H12.5962C13.4005 2.09212 14.1231 2.58259 14.4215 3.32953L9.3933 8.3584C8.6229 9.12571 7.3771 9.12571 6.6067 8.3584L1.57849 3.32953C1.8769 2.58259 2.59948 2.09212 3.40383 2.09054ZM12.5962 13.9093H3.40383C2.31595 13.9093 1.43404 13.0274 1.43404 11.9395V5.04522L5.67828 9.28683C6.96148 10.5668 9.03852 10.5668 10.3217 9.28683L14.566 5.04522V11.9395C14.566 13.0274 13.6841 13.9093 12.5962 13.9093Z" fill="white"/>
</svg>
