<svg width="18" height="19" viewBox="0 0 18 19" fill="none" xmlns="http://www.w3.org/2000/svg">
<path d="M16.3158 11.5286V8.35917C16.3158 4.27021 12.9889 0.943359 8.89996 0.943359C4.811 0.943359 1.48416 4.27021 1.48416 8.35917V11.5286C0.805324 11.9245 0.343262 12.6523 0.343262 13.4932C0.343262 14.7516 1.36664 15.775 2.62505 15.775H15.1749C16.4333 15.775 17.4567 14.7516 17.4567 13.4932C17.4567 12.6524 16.9946 11.9245 16.3158 11.5286ZM15.1749 14.6341H2.62505C1.99585 14.6341 1.48416 14.1224 1.48416 13.4932C1.48416 12.864 1.99585 12.3523 2.62505 12.3523H4.35807C4.67312 12.3523 4.92851 12.0969 4.92851 11.7818C4.92851 11.4668 4.67312 11.2114 4.35807 11.2114H2.62505V8.35917C2.62505 4.89941 5.4402 2.08425 8.89996 2.08425C12.3597 2.08425 15.1749 4.89941 15.1749 8.35917V11.2114H13.4464C13.1314 11.2114 12.876 11.4668 12.876 11.7818C12.876 12.0969 13.1314 12.3523 13.4464 12.3523H15.1749C15.8041 12.3523 16.3158 12.864 16.3158 13.4932C16.3158 14.1224 15.8041 14.6341 15.1749 14.6341ZM11.1818 16.9159H6.61818C6.30313 16.9159 6.04773 17.1713 6.04773 17.4863C6.04773 17.8014 6.30313 18.0568 6.61818 18.0568H11.1818C11.4968 18.0568 11.7522 17.8014 11.7522 17.4863C11.7522 17.1713 11.4968 16.9159 11.1818 16.9159Z" fill="black"/>
</svg>
