<svg width="18" height="18" viewBox="0 0 18 18" fill="none" xmlns="http://www.w3.org/2000/svg">
<path d="M6.2019 9.00012C8.51673 9.00012 10.3992 7.11762 10.3992 4.8028C10.3992 2.48797 8.51673 0.605469 6.2019 0.605469C3.88708 0.605469 2.00458 2.48797 2.00458 4.8028C2.00458 7.11762 3.88708 9.00012 6.2019 9.00012ZM6.2019 2.00458C7.74512 2.00458 9.00012 3.25958 9.00012 4.8028C9.00012 6.34601 7.74512 7.60101 6.2019 7.60101C4.65869 7.60101 3.40369 6.34601 3.40369 4.8028C3.40369 3.25958 4.65869 2.00458 6.2019 2.00458ZM4.10324 10.3992H7.60101V11.7983H4.10324C2.94618 11.7983 2.00458 12.7399 2.00458 13.897V17.3948H0.605469V13.897C0.605469 11.9683 2.17457 10.3992 4.10324 10.3992ZM15.9957 10.3992V9.69968C15.9957 8.15646 14.7407 6.90146 13.1974 6.90146C11.6542 6.90146 10.3992 8.15646 10.3992 9.69968V10.3992H9.00012V15.2961C9.00012 16.4532 9.94172 17.3948 11.0988 17.3948H15.2961C16.4532 17.3948 17.3948 16.4532 17.3948 15.2961V10.3992H15.9957ZM11.7983 9.69968C11.7983 8.92807 12.4258 8.30057 13.1974 8.30057C13.9691 8.30057 14.5966 8.92807 14.5966 9.69968V10.3992H11.7983V9.69968ZM15.9957 15.2961C15.9957 15.6816 15.6816 15.9957 15.2961 15.9957H11.0988C10.7133 15.9957 10.3992 15.6816 10.3992 15.2961V11.7983H15.9957V15.2961ZM13.897 14.5966H12.4979V13.1974H13.897V14.5966Z" fill="#FDFDFD"/>
</svg>
