<svg width="18" height="18" viewBox="0 0 18 18" fill="none" xmlns="http://www.w3.org/2000/svg">
<path d="M13.7435 0.868164H4.2565C2.38617 0.870404 0.870526 2.38605 0.868286 4.25638V13.7434C0.870527 15.6137 2.38617 17.1294 4.2565 17.1316H13.7435C15.6138 17.1294 17.1295 15.6137 17.1317 13.7434V4.25638C17.1295 2.38605 15.6138 0.870405 13.7435 0.868164ZM5.61179 15.7763V15.0987C5.61179 13.2274 7.12874 11.7105 9 11.7105C10.8713 11.7105 12.3882 13.2274 12.3882 15.0987V15.7763H5.61179ZM15.7764 13.7434C15.7764 14.8661 14.8663 15.7763 13.7435 15.7763V15.0987C13.7435 12.4789 11.6198 10.3552 9 10.3552C6.38024 10.3552 4.2565 12.4789 4.2565 15.0987L4.2565 15.7763C3.13374 15.7763 2.22357 14.8661 2.22357 13.7434V4.25638C2.22357 3.13362 3.13375 2.22345 4.2565 2.22345H13.7435C14.8663 2.22345 15.7764 3.13362 15.7764 4.25638V13.7434Z" fill="white"/>
<path d="M9 3.57861C7.50299 3.57861 6.28943 4.79218 6.28943 6.28918C6.28943 7.78619 7.50299 8.99976 9 8.99976C10.497 8.99976 11.7106 7.78619 11.7106 6.28918C11.7106 4.79218 10.497 3.57861 9 3.57861ZM9 7.64447C8.2515 7.64447 7.64471 7.03769 7.64471 6.28918C7.64471 5.54068 8.2515 4.9339 9 4.9339C9.7485 4.9339 10.3553 5.54068 10.3553 6.28918C10.3553 7.03769 9.7485 7.64447 9 7.64447Z" fill="white"/>
</svg>
