<svg width="24" height="24" viewBox="0 0 24 24" fill="none" xmlns="http://www.w3.org/2000/svg">
<path d="M11.863 11.503C13.3018 11.503 14.5476 10.9935 15.5658 9.98823C16.5836 8.98317 17.0998 7.75338 17.0998 6.33266C17.0998 4.91237 16.5838 3.68246 15.5656 2.67702C14.5474 1.67209 13.3016 1.1626 11.863 1.1626C10.424 1.1626 9.17833 1.67209 8.16035 2.67719C7.14236 3.68229 6.62611 4.91224 6.62611 6.33267C6.62611 7.75338 7.14232 8.98334 8.16039 9.98844C9.17871 10.9934 10.4245 11.503 11.863 11.503ZM9.06142 3.56666C9.84253 2.79542 10.7589 2.42056 11.863 2.42056C12.9669 2.42056 13.8834 2.79542 14.6647 3.56666C15.4459 4.33802 15.8257 5.24287 15.8257 6.33262C15.8257 7.42271 15.4459 8.32744 14.6647 9.0988C13.8834 9.8702 12.9669 10.2451 11.863 10.2451C10.7592 10.2451 9.84292 9.87004 9.06142 9.0988C8.2801 8.32761 7.90025 7.42275 7.90025 6.33267C7.90025 5.24287 8.2801 4.33802 9.06142 3.56666ZM21.0261 17.6691C20.9967 17.2509 20.9373 16.7946 20.8499 16.3128C20.7616 15.8273 20.648 15.3684 20.512 14.949C20.3713 14.5155 20.1804 14.0874 19.944 13.6771C19.699 13.2513 19.4111 12.8805 19.0879 12.5754C18.75 12.2562 18.3363 11.9996 17.8579 11.8124C17.3812 11.6262 16.8528 11.5319 16.2877 11.5319C16.0657 11.5319 15.8511 11.6218 15.4366 11.8882C15.1419 12.0777 14.8463 12.2658 14.5499 12.4526C14.2651 12.6318 13.8793 12.7996 13.4027 12.9516C12.9377 13.1002 12.4656 13.1755 11.9995 13.1755C11.5337 13.1755 11.0616 13.1002 10.5963 12.9516C10.1203 12.7998 9.73425 12.6319 9.4499 12.4527C9.11994 12.2446 8.82141 12.0546 8.56245 11.888C8.14825 11.6216 7.93358 11.5317 7.71166 11.5317C7.14631 11.5317 6.61817 11.6262 6.14158 11.8126C5.6635 11.9994 5.24964 12.2561 4.9114 12.5756C4.58828 12.8809 4.30032 13.2514 4.05546 13.6771C3.81944 14.0874 3.62835 14.5153 3.48766 14.9492C3.35177 15.3686 3.23817 15.8273 3.14993 16.3128C3.06232 16.7939 3.00313 17.2504 2.97374 17.6696C2.94486 18.0796 2.9303 18.5062 2.9303 18.9372C2.9303 20.0578 3.29108 20.9649 4.00255 21.634C4.70523 22.2942 5.63484 22.6289 6.76561 22.6289H17.2347C18.3651 22.6289 19.2948 22.2942 19.9976 21.634C20.7092 20.9654 21.07 20.058 21.07 18.9371C21.0699 18.5046 21.0551 18.0779 21.0261 17.6691ZM19.1191 20.7226C18.6548 21.1588 18.0384 21.3709 17.2345 21.3709H6.76565C5.96165 21.3709 5.34523 21.1588 4.88108 20.7228C4.42576 20.2948 4.20448 19.7106 4.20448 18.9372C4.20448 18.535 4.21789 18.1379 4.24482 17.7566C4.27098 17.3825 4.32457 16.9716 4.40406 16.535C4.4825 16.1038 4.58233 15.6991 4.70111 15.3328C4.81509 14.9814 4.97051 14.6336 5.16326 14.2985C5.34722 13.9791 5.55887 13.7051 5.79243 13.4844C6.01091 13.2779 6.2863 13.1089 6.61074 12.9821C6.9108 12.8648 7.24806 12.8006 7.61416 12.7909C7.65875 12.8144 7.73824 12.8591 7.86695 12.9419C8.12888 13.1105 8.43077 13.3028 8.76455 13.5132C9.14079 13.75 9.62545 13.9639 10.2046 14.1485C10.7966 14.3375 11.4004 14.4334 11.9997 14.4334C12.5991 14.4334 13.203 14.3375 13.7947 14.1486C14.3743 13.9637 14.8588 13.75 15.2356 13.5129C15.5771 13.2973 15.8706 13.1107 16.1324 12.9419C16.2612 12.8592 16.3406 12.8144 16.3853 12.791C16.7515 12.8006 17.0888 12.8648 17.389 12.9821C17.7133 13.1088 17.9887 13.278 18.2071 13.4843C18.4407 13.705 18.6523 13.979 18.8363 14.2987C19.0292 14.6336 19.1849 14.9816 19.2986 15.3326C19.4176 15.6994 19.5176 16.1039 19.5959 16.5348C19.6752 16.9723 19.7289 17.3834 19.7551 17.7568C19.7822 18.1365 19.7958 18.5339 19.7959 18.9372C19.7958 19.7108 19.5744 20.2948 19.1191 20.7226Z" fill="white"/>
</svg>
