<svg width="18" height="18" viewBox="0 0 18 18" fill="none" xmlns="http://www.w3.org/2000/svg">
<path d="M17.4155 16.8347L12.876 12.3678C14.0647 11.0763 14.7951 9.3682 14.7951 7.48865C14.7946 3.46795 11.4828 0.208984 7.39728 0.208984C3.31174 0.208984 0 3.46795 0 7.48865C0 11.5094 3.31174 14.7683 7.39728 14.7683C9.16252 14.7683 10.7816 14.1577 12.0533 13.1427L16.6104 17.6272C16.8324 17.8459 17.1929 17.8459 17.4149 17.6272C17.5216 17.523 17.5818 17.3802 17.5819 17.2311C17.582 17.0819 17.522 16.9391 17.4155 16.8347ZM7.39728 13.6483C3.94047 13.6483 1.13818 10.8905 1.13818 7.48865C1.13818 4.08676 3.94047 1.329 7.39728 1.329C10.8541 1.329 13.6564 4.08676 13.6564 7.48865C13.6564 10.8905 10.8541 13.6483 7.39728 13.6483Z" fill="black"/>
</svg>
