<svg width="18" height="18" viewBox="0 0 18 18" fill="none" xmlns="http://www.w3.org/2000/svg">
<path fill-rule="evenodd" clip-rule="evenodd" d="M0.261254 14.245C0.261253 13.8307 0.59704 13.495 1.01125 13.495L7.48425 13.495C7.89847 13.495 8.23425 13.8307 8.23425 14.245C8.23425 14.6592 7.89847 14.995 7.48425 14.995L1.01025 14.995C0.59604 14.995 0.261254 14.6592 0.261254 14.245ZM11.6103 11.588C12.2583 10.941 13.2053 10.774 14.2673 10.774C15.3293 10.774 16.2763 10.941 16.9233 11.589C17.5703 12.237 17.7393 13.183 17.7393 14.245C17.7393 15.307 17.5713 16.255 16.9243 16.902C16.2773 17.549 15.3293 17.717 14.2673 17.717C13.2053 17.717 12.2583 17.55 11.6113 16.902C10.9633 16.255 10.7953 15.308 10.7953 14.245C10.7953 13.182 10.9633 12.236 11.6103 11.588ZM12.6713 12.649C12.4683 12.852 12.2953 13.266 12.2953 14.246C12.2953 15.226 12.4683 15.639 12.6713 15.842C12.8743 16.045 13.2883 16.217 14.2673 16.217C15.2463 16.217 15.6603 16.044 15.8633 15.842C16.0663 15.639 16.2393 15.225 16.2393 14.246C16.2393 13.267 16.0663 12.852 15.8633 12.649C15.6603 12.446 15.2463 12.274 14.2673 12.274C13.2883 12.274 12.8743 12.447 12.6713 12.649ZM9.76725 3.75596C9.76725 3.34175 10.103 3.00596 10.5173 3.00596L16.9883 3.00596C17.4025 3.00596 17.7383 3.34175 17.7383 3.75596C17.7383 4.17017 17.4025 4.50596 16.9883 4.50596L10.5173 4.50596C10.103 4.50596 9.76725 4.17017 9.76725 3.75596ZM1.07625 1.09796C1.72425 0.449959 2.67125 0.282959 3.73425 0.282959C4.79625 0.282959 5.74325 0.449959 6.39025 1.09796C7.03825 1.74596 7.20525 2.69196 7.20525 3.75496C7.20525 4.81696 7.03825 5.76396 6.39025 6.41196C5.74225 7.05896 4.79625 7.22596 3.73425 7.22596C2.67125 7.22596 1.72425 7.05896 1.07625 6.41196C0.428254 5.76396 0.261254 4.81696 0.261254 3.75496C0.261254 2.69196 0.429254 1.74496 1.07625 1.09796ZM2.13625 2.15796C1.93425 2.36196 1.76125 2.77596 1.76125 3.75496C1.76125 4.73396 1.93425 5.14796 2.13725 5.35096C2.34025 5.55396 2.75425 5.72596 3.73425 5.72596C4.71325 5.72596 5.12725 5.55396 5.33025 5.35096C5.53225 5.14796 5.70525 4.73396 5.70525 3.75496C5.70525 2.77496 5.53325 2.36196 5.33025 2.15896C5.12725 1.95596 4.71225 1.78296 3.73425 1.78296C2.75425 1.78296 2.34025 1.95596 2.13725 2.15896L2.13625 2.15796Z" fill="black"/>
</svg>
