<svg width="20" height="24" viewBox="0 0 20 24" fill="none" xmlns="http://www.w3.org/2000/svg">
<path d="M10.0194 4.09591H12.6709L11.6667 5.10187C11.4067 5.36246 11.407 5.78457 11.6676 6.04481C11.9277 6.30438 12.3499 6.30487 12.6103 6.04392L14.749 3.90159C15.0128 3.63758 15.0093 3.20369 14.7337 2.9443L12.6104 0.817253C12.3503 0.556662 11.9282 0.556351 11.6676 0.816365C11.407 1.07664 11.4067 1.49871 11.6667 1.75935L12.6682 2.76251C9.64701 2.76251 10.0238 2.76233 9.99076 2.76233C2.94266 2.76233 -1.53117 10.433 2.00306 16.5986C2.18605 16.9179 2.59318 17.0287 2.91297 16.8455C3.23246 16.6623 3.34286 16.255 3.15987 15.9356C0.118207 10.6294 4.01165 4.06569 10.0194 4.09591ZM17.9967 7.4011C17.8137 7.08184 17.4062 6.97121 17.0868 7.15425C16.7673 7.33737 16.6569 7.7449 16.8401 8.06434C19.8586 13.3303 16.0489 19.904 9.99996 19.904H7.32884L8.33307 18.898C8.59331 18.6375 8.59295 18.2153 8.33236 17.9551C8.07177 17.6951 7.64953 17.6954 7.38942 17.956L5.25078 20.0983C4.9893 20.3601 4.98792 20.7947 5.26692 21.0565L7.38942 23.1827C7.64953 23.4431 8.07159 23.4438 8.33236 23.1836C8.59295 22.9233 8.59331 22.5012 8.33325 22.2406L7.33178 21.2374H10.0083C17.0601 21.2372 21.5302 13.5654 17.9967 7.4011Z" fill="white"/>
<path d="M9.3333 9.99982H12.0001C12.3682 9.99982 12.6668 9.70117 12.6668 9.3331C12.6668 8.96487 12.3682 8.66641 12.0001 8.66641H10.6667V7.99971C10.6667 7.63147 10.3681 7.33301 10 7.33301C9.63176 7.33301 9.3333 7.63147 9.3333 7.99971V8.66641C8.2303 8.66641 7.33319 9.56371 7.33319 10.6665C7.33319 11.7693 8.2303 12.6666 9.3333 12.6666H10.6666C11.0343 12.6666 11.3334 12.9656 11.3334 13.3333C11.3334 13.701 11.0361 14.0002 10.6666 14.0002C9.97763 14.0002 10 14 10 14L9.99689 14.0002L7.99989 14C7.63165 14 7.33319 14.2985 7.33319 14.6665C7.33305 15.0348 7.63147 15.3333 7.99977 15.3334H9.3333V16.0001C9.3333 16.3682 9.63176 16.6668 10 16.6668C10.3681 16.6668 10.6667 16.3682 10.6667 16.0001V15.3336C11.772 15.3336 12.6668 14.4393 12.6668 13.3333C12.6668 12.2305 11.7694 11.3332 10.6666 11.3332H9.3333C8.96559 11.3332 8.6666 11.0341 8.6666 10.6665C8.6666 10.2988 8.96559 9.99982 9.3333 9.99982Z" fill="white"/>
</svg>
