<svg width="24" height="16" viewBox="0 0 24 16" fill="none" xmlns="http://www.w3.org/2000/svg">
<path d="M20.3262 3.40955C20.3682 3.44453 20.3682 3.44453 20.4109 3.48021C21.0007 3.97357 21.5589 4.49853 22.1037 5.04088C22.1524 5.08924 22.1524 5.08924 22.2021 5.13858C22.4127 5.34985 22.6109 5.56903 22.8054 5.79515C22.8548 5.85143 22.9044 5.90764 22.9539 5.9638C24.0086 7.1655 24.0086 7.1655 23.9982 7.70258C23.9344 8.11361 23.6076 8.42528 23.3336 8.71851C23.2289 8.83287 23.1326 8.95089 23.0364 9.07244C22.6055 9.60338 22.1179 10.088 21.636 10.5722C21.6041 10.6043 21.5722 10.6364 21.5394 10.6694C21.3297 10.8785 21.1119 11.075 20.8876 11.268C20.8313 11.3175 20.7751 11.367 20.7189 11.4166C20.3756 11.7179 20.0282 12.0096 19.6613 12.2818C19.603 12.3252 19.5448 12.3687 19.4868 12.4125C18.6363 13.0525 17.7266 13.6055 16.7712 14.0746C16.7162 14.1016 16.7162 14.1016 16.6601 14.1292C14.1496 15.3452 11.3128 15.5856 8.66016 14.6796C6.81362 14.0166 5.17234 12.9915 3.67377 11.7358C3.64581 11.7125 3.61786 11.6891 3.58905 11.6651C2.99927 11.1718 2.4411 10.6468 1.89626 10.1044C1.84757 10.0561 1.84757 10.0561 1.7979 10.0067C1.58729 9.79548 1.38907 9.57629 1.19461 9.35017C1.14515 9.2939 1.09564 9.23768 1.04606 9.18152C-0.00863704 7.97982 -0.00863709 7.97982 0.00180426 7.44275C0.0655767 7.03171 0.39241 6.72004 0.666361 6.42682C0.771094 6.31245 0.8674 6.19444 0.963648 6.07289C1.39453 5.54194 1.88208 5.0573 2.36402 4.57311C2.39589 4.54103 2.42776 4.50894 2.46059 4.47588C2.67027 4.26687 2.88807 4.07035 3.11245 3.87731C3.16872 3.82786 3.22494 3.77834 3.2811 3.72876C3.62455 3.42727 3.97215 3.1355 4.33928 2.86307C4.39669 2.82041 4.4539 2.77748 4.51095 2.73435C8.84064 -0.534582 14.4281 -1.51063 20.3262 3.40955ZM5.31095 4.20475C5.27242 4.23478 5.23389 4.2648 5.19419 4.29574C4.44221 4.89011 3.74452 5.53421 3.06567 6.21029C3.01031 6.26533 3.01031 6.26533 2.95382 6.32148C2.64601 6.63015 2.36105 6.95383 2.08629 7.292C2.05017 7.33638 2.01405 7.38076 1.97684 7.42649C1.95024 7.45929 1.92365 7.49209 1.89626 7.52589C1.96644 7.76326 2.11129 7.90518 2.27924 8.07843C2.33162 8.13326 2.38394 8.18813 2.4362 8.24307C2.46296 8.27112 2.48972 8.29917 2.51729 8.32807C2.59752 8.41422 2.6744 8.50252 2.75103 8.59188C2.96065 8.83328 3.18712 9.05744 3.41357 9.28293C3.45581 9.32535 3.49805 9.36777 3.54157 9.41148C3.78077 9.65033 4.02446 9.87955 4.28186 10.0986C4.33471 10.1447 4.38752 10.1908 4.44028 10.2369C5.55987 11.2084 6.77431 12.04 8.11754 12.6713C8.1628 12.6926 8.1628 12.6926 8.20897 12.7144C10.355 13.7146 12.6317 13.8842 14.8777 13.0976C16.2627 12.5929 17.5285 11.8465 18.6891 10.9406C18.7276 10.9105 18.7661 10.8805 18.8058 10.8496C19.5578 10.2552 20.2555 9.61112 20.9343 8.93503C20.9897 8.87999 20.9897 8.87999 21.0462 8.82384C21.354 8.51518 21.639 8.19149 21.9137 7.85332C21.9498 7.80894 21.986 7.76456 22.0232 7.71884C22.0498 7.68604 22.0763 7.65324 22.1037 7.61944C22.0334 7.37243 21.8716 7.22278 21.6974 7.0435C21.6406 6.9843 21.5839 6.92504 21.5273 6.86572C21.4986 6.83577 21.4699 6.80582 21.4404 6.77496C21.3576 6.68638 21.2782 6.59573 21.1993 6.50374C20.9979 6.27157 20.7808 6.05576 20.563 5.83901C20.523 5.79882 20.483 5.75863 20.4418 5.71722C20.2081 5.48392 19.9691 5.26122 19.7181 5.04673C19.6691 5.00344 19.6201 4.96008 19.5712 4.91663C18.9007 4.32748 18.1807 3.7927 17.4261 3.31599C17.3977 3.29805 17.3694 3.28012 17.3402 3.26163C16.9283 3.0032 16.5053 2.77521 16.0671 2.5648C15.9801 2.52275 15.8937 2.47961 15.8074 2.43619C12.1734 0.656848 8.35429 1.82924 5.31095 4.20475Z" fill="black"/>
<path d="M11.8462 2.79579C13.0534 2.76828 14.1509 3.16574 15.0873 3.92409C15.1332 3.95927 15.1332 3.95927 15.1801 3.99517C16.0879 4.71767 16.6273 5.93757 16.7595 7.06981C16.7646 7.14381 16.7685 7.21789 16.7712 7.292C16.7731 7.33385 16.775 7.3757 16.7769 7.41881C16.8044 8.62603 16.4069 9.72355 15.6486 10.6599C15.6251 10.6905 15.6017 10.7212 15.5775 10.7527C14.855 11.6606 13.6351 12.1999 12.5029 12.3322C12.4289 12.3372 12.3548 12.3411 12.2807 12.3439C12.2388 12.3457 12.197 12.3476 12.1539 12.3495C10.9466 12.377 9.84913 11.9796 8.91276 11.2212C8.88213 11.1978 8.8515 11.1743 8.81994 11.1502C7.91213 10.4277 7.37274 9.20775 7.2405 8.07551C7.23546 8.00152 7.23158 7.92744 7.2288 7.85332C7.226 7.79055 7.226 7.79055 7.22314 7.72651C7.19563 6.5193 7.5931 5.42178 8.35144 4.48541C8.3749 4.45478 8.39835 4.42415 8.42252 4.39259C9.14502 3.48477 10.3649 2.94539 11.4972 2.81315C11.6135 2.80522 11.7297 2.80099 11.8462 2.79579ZM9.51684 5.62997C8.99584 6.3307 8.76091 7.17667 8.87893 8.0418C9.02432 8.89392 9.47606 9.62367 10.1699 10.1395C10.9241 10.6281 11.7724 10.8382 12.6576 10.6585C13.4722 10.4672 14.184 9.99389 14.6418 9.28713C15.1039 8.48262 15.2783 7.63069 15.0391 6.72784C14.8057 5.94308 14.3048 5.26994 13.5904 4.85962C12.1623 4.08992 10.5598 4.39566 9.51684 5.62997Z" fill="black"/>
</svg>
